#!OML:ASF X:\für Bonn\!DataBase\2005_08_12_Daniel\c3d\Daniel.ASF
:FULLY-SPECIFIED
:DEGREES
16
root 2.92295 17.6262 17.6067 -4.91458 10.4182 0.806074
lowerback 5.47322 -2.54343 -0.603649
upperback 1.80218 -3.45126 -2.22928
thorax -1.31226 -1.71999 -1.72518
lowerneck 1.37079 -0.245689 -1.05959
upperneck 8.98477 -0.286794 -0.345211
head 2.60057 -0.184949 0.0653063
rclavicle 2.87554e-014 2.78299e-014
rhumerus -43.2352 0.287059 -90.9522
rradius 97.5069
rwrist -0.407861
rhand -40.4338 29.1605
rfingers 7.12502
rthumb -13.3859 -0.389504
lclavicle 2.87554e-014 2.78299e-014
lhumerus -39.4975 39.9583 64.8585
lradius 20.8882
lwrist -33.1414
lhand -10.3581 -5.74096
lfingers 7.12502
lthumb 15.6388 23.6469
rfemur 6.24504 19.593 20.476
rtibia 17.8131
rfoot -26.4873 -25.5272
rtoes -12.0087
lfemur 0.494817 -17.9791 -21.3313
ltibia 26.8908
lfoot -22.1688 8.74197
ltoes -13.6183
17
root 2.9219 17.6259 17.6064 -4.93342 10.4475 0.792472
lowerback 5.46213 -2.50266 -0.607924
upperback 1.78889 -3.39763 -2.25046
thorax -1.31934 -1.69322 -1.74828
lowerneck 1.41894 -0.294926 -1.03033
upperneck 8.98916 -0.353812 -0.340758
head 2.59349 -0.217103 0.0605593
rclavicle 1.54804e-014 2.14687e-014
rhumerus -41.9975 0.592957 -90.6313
rradius 98.3172
rwrist -0.0576359
rhand -40.3718 29.0034
rfingers 7.12502
rthumb -13.3261 -0.550497
lclavicle 1.54804e-014 2.14687e-014
lhumerus -39.5485 40.114 64.7484
lradius 20.7847
lwrist -33.353
lhand -10.3145 -5.75893
lfingers 7.12502
lthumb 15.6807 23.6257
rfemur 6.28278 19.6418 20.5217
rtibia 17.8033
rfoot -26.5307 -25.5966
rtoes -11.9768
lfemur 0.5011 -17.9774 -21.3122
ltibia 26.8964
lfoot -22.164 8.70889
ltoes -13.6208
18
root 2.92115 17.6257 17.6065 -4.93823 10.4925 0.803962
lowerback 5.43745 -2.469 -0.636441
upperback 1.77463 -3.35466 -2.28169
thorax -1.31932 -1.67175 -1.76805
lowerneck 1.4737 -0.337072 -1.02018
upperneck 8.9786 -0.414211 -0.296639
head 2.58036 -0.245435 0.0718423
rclavicle 1.76794e-014 -1.35174e-014
rhumerus -40.7347 0.892614 -90.2929
rradius 99.0583
rwrist 0.318259
rhand -40.3122 28.7377
rfingers 7.12502
rthumb -13.2687 -0.81995
lclavicle 1.76794e-014 -1.35174e-014
lhumerus -39.6359 40.3338 64.5878
lradius 20.694
lwrist -33.6293
lhand -10.2781 -5.8165
lfingers 7.12502
lthumb 15.7158 23.5653
rfemur 6.31325 19.6642 20.5304
rtibia 17.7904
rfoot -26.5702 -25.6521
rtoes -11.9563
lfemur 0.495715 -17.9888 -21.32
ltibia 26.9035
lfoot -22.1573 8.67711
ltoes -13.6239
19
root 2.91961 17.6255 17.6063 -4.95381 10.5238 0.802603
lowerback 5.42166 -2.42599 -0.654292
upperback 1.76371 -3.29869 -2.30859
thorax -1.32082 -1.64379 -1.78987
lowerneck 1.52517 -0.385936 -1.00547
upperneck 8.97081 -0.482592 -0.265362
head 2.56876 -0.277964 0.0781421
rclavicle -2.18912e-014 -3.33958e-014
rhumerus -39.4469 1.16382 -89.9324
rradius 99.7086
rwrist 0.705371
rhand -40.2869 28.4543
rfingers 7.12502
rthumb -13.2444 -1.10496
lclavicle -2.18912e-014 -3.33958e-014
lhumerus -39.6763 40.4817 64.4826
lradius 20.5988
lwrist -33.8156
lhand -10.2302 -5.85832
lfingers 7.12502
lthumb 15.7619 23.5199
rfemur 6.3564 19.7495 20.5698
rtibia 17.7734
rfoot -26.6461 -25.736
rtoes -11.9339
lfemur 0.493437 -17.9826 -21.3099
ltibia 26.9136
lfoot -22.1497 8.63879
ltoes -13.6291
20
root 2.91881 17.6258 17.6063 -4.95272 10.556 0.80424
lowerback 5.39629 -2.38377 -0.66412
upperback 1.74527 -3.24343 -2.33967
thorax -1.32537 -1.61622 -1.82062
lowerneck 1.54611 -0.430502 -0.995433
upperneck 8.98915 -0.545283 -0.225292
head 2.57148 -0.307716 0.0880707
rclavicle 1.5617e-014 2.3059e-014
rhumerus -38.1599 1.41626 -89.5624
rradius 100.277
rwrist 1.14924
rhand -40.2897 28.0687
rfingers 7.12502
rthumb -13.247 -1.49032
lclavicle 1.5617e-014 2.3059e-014
lhumerus -39.712 40.6048 64.378
lradius 20.4823
lwrist -34.0029
lhand -10.2138 -5.8946
lfingers 7.12502
lthumb 15.7778 23.4824
rfemur 6.37399 19.7683 20.5823
rtibia 17.7603
rfoot -26.6733 -25.7799
rtoes -11.9195
lfemur 0.484687 -18.0155 -21.3129
ltibia 26.9217
lfoot -22.1495 8.63909
ltoes -13.6292
21
root 2.91805 17.6255 17.6058 -4.96833 10.5945 0.802382
lowerback 5.38793 -2.34913 -0.688568
upperback 1.72924 -3.19895 -2.3508
thorax -1.33525 -1.59401 -1.82131
lowerneck 1.58375 -0.474762 -1.0128
upperneck 8.99477 -0.606598 -0.198632
head 2.56701 -0.337975 0.0984774
rclavicle 7.85199e-015 -1.27222e-014
rhumerus -36.8611 1.71047 -89.1364
rradius 100.768
rwrist 1.57127
rhand -40.2703 27.5731
rfingers 7.12502
rthumb -13.2283 -1.98719
lclavicle 7.85199e-015 -1.27222e-014
lhumerus -39.8158 40.8361 64.2271
lradius 20.3898
lwrist -34.282
lhand -10.1891 -5.94008
lfingers 7.12502
lthumb 15.8015 23.435
rfemur 6.41561 19.8279 20.6147
rtibia 17.7484
rfoot -26.7464 -25.8443
rtoes -11.8425
lfemur 0.486435 -18.02 -21.3073
ltibia 26.9292
lfoot -22.1425 8.60503
ltoes -13.632
